<?xml version="1.0" encoding="UTF-8" standalone="no"?>
<svg
   width="32"
   height="32"
   version="1.1"
   id="svg2"
   sodipodi:docname="battery=full.svg"
   inkscape:version="1.4.2 (ebf0e940d0, 2025-05-08)"
   xmlns:inkscape="http://www.inkscape.org/namespaces/inkscape"
   xmlns:sodipodi="http://sodipodi.sourceforge.net/DTD/sodipodi-0.dtd"
   xmlns="http://www.w3.org/2000/svg"
   xmlns:svg="http://www.w3.org/2000/svg">
  <defs
     id="defs2" />
  <sodipodi:namedview
     id="namedview2"
     pagecolor="#343434"
     bordercolor="#000000"
     borderopacity="0.25"
     inkscape:showpageshadow="2"
     inkscape:pageopacity="0.0"
     inkscape:pagecheckerboard="0"
     inkscape:deskcolor="#d1d1d1"
     showgrid="true"
     inkscape:zoom="8"
     inkscape:cx="13.75"
     inkscape:cy="-5.9375"
     inkscape:window-width="1854"
     inkscape:window-height="1008"
     inkscape:window-x="66"
     inkscape:window-y="35"
     inkscape:window-maximized="1"
     inkscape:current-layer="svg2">
    <inkscape:grid
       id="grid2"
       units="px"
       originx="0"
       originy="0"
       spacingx="1"
       spacingy="1"
       empcolor="#0099e5"
       empopacity="0.30196078"
       color="#0099e5"
       opacity="0.14901961"
       empspacing="4"
       enabled="true"
       visible="true" />
  </sodipodi:namedview>
  <path
     id="rect8"
     style="fill:#ffffff;stroke:none;stroke-width:2;stroke-linecap:round;stroke-linejoin:round;stroke-dasharray:none;stroke-opacity:1"
     d="M 4.375 11 C 4.2026776 11.867163 4 13.269616 4 16 C 4 18.730384 4.2026776 20.132838 4.375 21 L 23.625 21 C 23.797322 20.132838 24 18.730384 24 16 C 24 13.269616 23.797322 11.867162 23.625 11 L 4.375 11 z " />
  <path
     id="path5"
     style="baseline-shift:baseline;display:inline;overflow:visible;vector-effect:none;fill:#ffffff;stroke-linejoin:round;enable-background:accumulate;stop-color:#000000;stop-opacity:1;opacity:1"
     d="M 2.5 7 C 2.5 7 2.2395239 7.02129 2.0800781 7.0820312 C 1.9206324 7.1427726 1.7543478 7.241144 1.6015625 7.3769531 C 1.295992 7.6485714 1.0404324 8.0458261 0.81445312 8.6484375 C 0.36249456 9.8536603 0 11.9375 0 16 C 0 20.0625 0.36249456 22.146341 0.81445312 23.351562 C 1.0404324 23.954175 1.295992 24.351429 1.6015625 24.623047 C 1.7543478 24.758856 1.9206324 24.857228 2.0800781 24.917969 C 2.2395239 24.97871 2.5 25 2.5 25 L 25.5 25 C 25.5 25 25.760476 24.978709 25.919922 24.917969 C 26.079368 24.857229 26.245652 24.758856 26.398438 24.623047 C 26.704009 24.351429 26.959568 23.954174 27.185547 23.351562 C 27.456475 22.629088 27.695932 21.590887 27.84375 20 L 30.5 20 C 30.5 20 30.775565 19.974263 30.916016 19.914062 C 31.056466 19.853873 31.183151 19.762161 31.285156 19.660156 C 31.489166 19.456146 31.605096 19.223775 31.699219 18.941406 C 31.887464 18.376672 32 17.555556 32 16 C 32 14.444444 31.887464 13.62333 31.699219 13.058594 C 31.605099 12.776225 31.489166 12.543854 31.285156 12.339844 C 31.183151 12.237839 31.056466 12.146131 30.916016 12.085938 C 30.775565 12.025744 30.5 12 30.5 12 L 27.84375 12 C 27.695932 10.409113 27.456475 9.3709123 27.185547 8.6484375 C 26.959568 8.0458261 26.704009 7.6485714 26.398438 7.3769531 C 26.245652 7.241144 26.079368 7.1427725 25.919922 7.0820312 C 25.760476 7.02129 25.5 7 25.5 7 L 2.5 7 z M 2.8652344 9 L 25.134766 9 C 25.166866 9.041409 25.204926 9.059496 25.314453 9.3515625 C 25.612495 10.14634 26 12.0625 26 16 C 26 19.9375 25.612495 21.853661 25.314453 22.648438 C 25.204928 22.940504 25.166865 22.958591 25.134766 23 L 2.8652344 23 C 2.8331344 22.95859 2.7950714 22.9405 2.6855469 22.648438 C 2.3875054 21.853661 2 19.9375 2 16 C 2 12.0625 2.3875054 10.14634 2.6855469 9.3515625 C 2.7950717 9.0594963 2.8331346 9.0414093 2.8652344 9 z M 27.966797 14 L 29.828125 14 C 29.895752 14.279087 30 14.748675 30 16 C 30 17.251325 29.895752 17.720913 29.828125 18 L 27.966797 18 C 27.988514 17.392671 28 16.728116 28 16 C 28 15.271884 27.988514 14.607329 27.966797 14 z " />
</svg>
