<?xml version="1.0" encoding="UTF-8" standalone="no"?>
<svg
   width="32"
   height="32"
   version="1.1"
   id="svg2"
   sodipodi:docname="battery=charging.svg"
   inkscape:version="1.4.2 (ebf0e940d0, 2025-05-08)"
   xmlns:inkscape="http://www.inkscape.org/namespaces/inkscape"
   xmlns:sodipodi="http://sodipodi.sourceforge.net/DTD/sodipodi-0.dtd"
   xmlns="http://www.w3.org/2000/svg"
   xmlns:svg="http://www.w3.org/2000/svg">
  <defs
     id="defs2">
    <inkscape:path-effect
       effect="fillet_chamfer"
       id="path-effect2"
       is_visible="true"
       lpeversion="1"
       nodesatellites_param="F,0,0,1,0,2,0,1 @ F,0,0,1,0,2,0,1 @ F,0,0,1,0,0,0,1 @ F,0,0,1,0,2,0,1 @ F,0,0,1,0,2,0,1 @ F,0,1,1,0,0,0,1"
       radius="2"
       unit="px"
       method="auto"
       mode="F"
       chamfer_steps="1"
       flexible="false"
       use_knot_distance="true"
       apply_no_radius="true"
       apply_with_radius="true"
       only_selected="true"
       hide_knots="false" />
    <inkscape:path-effect
       effect="fillet_chamfer"
       id="path-effect6"
       is_visible="true"
       lpeversion="1"
       nodesatellites_param="F,0,0,1,0,2,0,1 @ F,0,0,1,0,2,0,1 @ F,0,0,1,0,0,0,1 @ F,0,0,1,0,2,0,1 @ F,0,0,1,0,2,0,1 @ F,0,1,1,0,0,0,1"
       radius="2"
       unit="px"
       method="auto"
       mode="F"
       chamfer_steps="1"
       flexible="false"
       use_knot_distance="true"
       apply_no_radius="true"
       apply_with_radius="true"
       only_selected="true"
       hide_knots="false" />
    <inkscape:path-effect
       effect="fillet_chamfer"
       id="path-effect4"
       is_visible="true"
       lpeversion="1"
       nodesatellites_param="F,0,0,1,0,2,0,1 @ F,0,0,1,0,2,0,1 @ F,0,0,1,0,0,0,1 @ F,0,0,1,0,2,0,1 @ F,0,0,1,0,2,0,1 @ F,0,1,1,0,0,0,1"
       radius="2"
       unit="px"
       method="auto"
       mode="F"
       chamfer_steps="1"
       flexible="false"
       use_knot_distance="true"
       apply_no_radius="true"
       apply_with_radius="true"
       only_selected="true"
       hide_knots="false" />
  </defs>
  <sodipodi:namedview
     id="namedview2"
     pagecolor="#444444"
     bordercolor="#000000"
     borderopacity="0.25"
     inkscape:showpageshadow="2"
     inkscape:pageopacity="0.0"
     inkscape:pagecheckerboard="0"
     inkscape:deskcolor="#d1d1d1"
     showgrid="true"
     inkscape:zoom="17.567184"
     inkscape:cx="13.035669"
     inkscape:cy="22.172022"
     inkscape:window-width="1854"
     inkscape:window-height="1008"
     inkscape:window-x="66"
     inkscape:window-y="35"
     inkscape:window-maximized="1"
     inkscape:current-layer="svg2">
    <inkscape:grid
       id="grid2"
       units="px"
       originx="0"
       originy="0"
       spacingx="1"
       spacingy="1"
       empcolor="#0099e5"
       empopacity="0.30196078"
       color="#0099e5"
       opacity="0.14901961"
       empspacing="5"
       enabled="true"
       visible="true" />
  </sodipodi:namedview>
  <path
     id="rect8"
     style="fill:#ffffff;stroke:none;stroke-width:2;stroke-linecap:round;stroke-linejoin:round;stroke-dasharray:none;stroke-opacity:1;opacity:0.3"
     d="M 4.375 11 C 4.202678 11.867163 4 13.269616 4 16 C 4 18.730384 4.202678 20.132838 4.375 21 L 11.240234 21 L 11.474609 20 L 9 20 C 6.6554097 20 5.1749667 17.1117 6.5449219 15.208984 L 9.5761719 11 L 4.375 11 z M 16.759766 11 L 16.525391 12 L 19 12 C 21.34459 12 22.825033 14.8883 21.455078 16.791016 L 18.423828 21 L 23.625 21 C 23.797322 20.132838 24 18.730384 24 16 C 24 13.269616 23.797322 11.867162 23.625 11 L 16.759766 11 z " />
  <path
     id="path5"
     style="baseline-shift:baseline;display:inline;overflow:visible;vector-effect:none;fill:#ffffff;stroke-linejoin:round;enable-background:accumulate;stop-color:#000000"
     d="M 2.5 7 C 2.5 7 2.2395241 7.0212912 2.0800781 7.0820312 C 1.9206321 7.1427713 1.7543485 7.2411441 1.6015625 7.3769531 C 1.2959925 7.6485711 1.0404321 8.0458255 0.81445312 8.6484375 C 0.36249512 9.8536605 7.4014868e-17 11.9375 0 16 C 0 20.0625 0.36249512 22.146342 0.81445312 23.351562 C 1.0404321 23.954176 1.2959925 24.351429 1.6015625 24.623047 C 1.7543485 24.758856 1.9206321 24.857228 2.0800781 24.917969 C 2.2395241 24.97871 2.5 25 2.5 25 L 10.496094 25 C 10.44091 24.702617 10.441267 24.395124 10.511719 24.095703 L 10.769531 23 L 2.8652344 23 C 2.8331344 22.95859 2.7950739 22.9405 2.6855469 22.648438 C 2.3875049 21.853661 2 19.9375 2 16 C 2 12.0625 2.3875049 10.14634 2.6855469 9.3515625 C 2.7950719 9.0594955 2.8331354 9.041409 2.8652344 9 L 11.015625 9 L 12.457031 7 L 2.5 7 z M 17.503906 7 C 17.55909 7.2973833 17.558733 7.6048761 17.488281 7.9042969 L 17.230469 9 L 25.134766 9 C 25.166866 9.04141 25.204926 9.0594995 25.314453 9.3515625 C 25.612495 10.146339 26 12.0625 26 16 C 26 19.9375 25.612495 21.853661 25.314453 22.648438 C 25.204928 22.940504 25.166865 22.958591 25.134766 23 L 16.984375 23 L 15.542969 25 L 25.5 25 C 25.5 25 25.760476 24.978709 25.919922 24.917969 C 26.079368 24.857229 26.245652 24.758856 26.398438 24.623047 C 26.704009 24.351429 26.959568 23.954174 27.185547 23.351562 C 27.456475 22.629087 27.695932 21.590887 27.84375 20 L 30.5 20 C 30.5 20 30.775565 19.974263 30.916016 19.914062 C 31.056466 19.853873 31.183151 19.762161 31.285156 19.660156 C 31.489166 19.456146 31.605096 19.223775 31.699219 18.941406 C 31.887464 18.376674 32 17.555556 32 16 C 32 14.444444 31.887464 13.62333 31.699219 13.058594 C 31.605099 12.776225 31.489166 12.543854 31.285156 12.339844 C 31.183151 12.237839 31.056466 12.146131 30.916016 12.085938 C 30.775565 12.025744 30.5 12 30.5 12 L 27.84375 12 C 27.695932 10.409113 27.456475 9.3709115 27.185547 8.6484375 C 26.959568 8.0458255 26.704009 7.6485711 26.398438 7.3769531 C 26.245652 7.2411441 26.079368 7.1427733 25.919922 7.0820312 C 25.760476 7.0212902 25.5 7 25.5 7 L 17.503906 7 z M 27.966797 14 L 29.828125 14 C 29.895752 14.279087 30 14.748675 30 16 C 30 17.251325 29.895752 17.720913 29.828125 18 L 27.966797 18 C 27.988514 17.392671 28 16.728116 28 16 C 28 15.271884 27.988507 14.607329 27.966797 14 z " />
  <path
     d="m 13.168609,24.876931 6.662782,-9.253862 A 1.0244675,1.0244675 62.876944 0 0 19,14 H 14 L 15.541921,7.4468343 A 0.39806728,0.39806728 24.497204 0 0 14.831391,7.1230687 L 8.1686095,16.376931 A 1.0244675,1.0244675 62.876944 0 0 9,18 h 5 l -1.541921,6.553166 a 0.39806728,0.39806728 24.497204 0 0 0.71053,0.323765 z"
     overflow="visible"
     style="color:#bebebe;isolation:auto;mix-blend-mode:normal;fill:#ff00ff;stroke-width:2"
     id="path3"
     sodipodi:nodetypes="ccccccc"
     inkscape:path-effect="#path-effect4"
     inkscape:original-d="M 12,26.5 21,14 H 14 L 16,5.5 7,18 h 7 z" />
  <path
     style="color:#bebebe;baseline-shift:baseline;display:inline;overflow:visible;vector-effect:none;fill:#ffffff;paint-order:stroke fill markers;enable-background:accumulate;stop-color:#000000"
     d="m 13.168609,24.876931 6.662782,-9.253862 A 1.0244675,1.0244675 0 0 0 19,14 H 14 L 15.541921,7.4468343 A 0.39806728,0.39806728 0 0 0 14.831391,7.1230687 L 8.1686095,16.376931 A 1.0244675,1.0244675 0 0 0 9,18 h 5 l -1.541921,6.553166 a 0.39806728,0.39806728 0 0 0 0.71053,0.323765 z"
     id="path4" />
</svg>
