<?xml version="1.0" encoding="UTF-8" standalone="no"?>
<svg
   width="32"
   height="32"
   version="1.1"
   id="svg1"
   sodipodi:docname="battery=50.svg"
   xml:space="preserve"
   inkscape:version="1.4.2 (ebf0e940d0, 2025-05-08)"
   xmlns:inkscape="http://www.inkscape.org/namespaces/inkscape"
   xmlns:sodipodi="http://sodipodi.sourceforge.net/DTD/sodipodi-0.dtd"
   xmlns="http://www.w3.org/2000/svg"
   xmlns:svg="http://www.w3.org/2000/svg"><defs
     id="defs1" /><sodipodi:namedview
     id="namedview1"
     pagecolor="#333333"
     bordercolor="#000000"
     borderopacity="0.25"
     inkscape:showpageshadow="2"
     inkscape:pageopacity="0.0"
     inkscape:pagecheckerboard="0"
     inkscape:deskcolor="#d1d1d1"
     showgrid="true"
     inkscape:zoom="24.84375"
     inkscape:cx="15.979874"
     inkscape:cy="16"
     inkscape:window-width="1854"
     inkscape:window-height="1008"
     inkscape:window-x="66"
     inkscape:window-y="35"
     inkscape:window-maximized="1"
     inkscape:current-layer="svg1"><inkscape:grid
       id="grid2"
       units="px"
       originx="0"
       originy="0"
       spacingx="1"
       spacingy="1"
       empcolor="#0099e5"
       empopacity="0.30196078"
       color="#0099e5"
       opacity="0.14901961"
       empspacing="4"
       enabled="true"
       visible="true" /></sodipodi:namedview><g
     transform="matrix(2,0,0,2,-626,542)"
     color="#bebebe"
     fill="#ffffff"
     id="g1"
     style="fill:#ff00ff" /><g
     id="g2"><path
       id="rect8"
       style="fill:#ffffff;stroke:none;stroke-width:2;stroke-linecap:round;stroke-linejoin:round;stroke-dasharray:none;stroke-opacity:1"
       d="M 4.375,11 C 4.2026776,11.867163 4,13.269616 4,16 c 0,2.730384 0.2026776,4.132838 0.375,5 h 10.25 C 14.797322,20.132838 15,18.730384 15,16 15,13.269616 14.797322,11.867162 14.625,11 Z"
       sodipodi:nodetypes="csccscc" /><path
       id="path5"
       style="baseline-shift:baseline;display:inline;overflow:visible;opacity:1;vector-effect:none;fill:#ffffff;stroke-linejoin:round;enable-background:accumulate;stop-color:#000000;stop-opacity:1"
       d="M 2.5,7 C 2.5,7 2.2395239,7.02129 2.0800781,7.0820312 1.9206324,7.1427726 1.7543478,7.241144 1.6015625,7.3769531 1.295992,7.6485714 1.0404324,8.0458261 0.81445312,8.6484375 0.36249456,9.8536603 0,11.9375 0,16 c 0,4.0625 0.36249456,6.146341 0.81445312,7.351562 0.22597928,0.602613 0.48153888,0.999867 0.78710938,1.271485 0.1527853,0.135809 0.3190699,0.234181 0.4785156,0.294922 C 2.2395239,24.97871 2.5,25 2.5,25 h 23 c 0,0 0.260476,-0.02129 0.419922,-0.08203 0.159446,-0.06074 0.32573,-0.159113 0.478516,-0.294922 0.305571,-0.271618 0.56113,-0.668873 0.787109,-1.271485 C 27.456475,22.629088 27.695932,21.590887 27.84375,20 H 30.5 c 0,0 0.275565,-0.02574 0.416016,-0.08594 0.14045,-0.06019 0.267135,-0.151901 0.36914,-0.253906 0.20401,-0.20401 0.31994,-0.436381 0.414063,-0.71875 C 31.887464,18.376672 32,17.555556 32,16 c 0,-1.555556 -0.112536,-2.37667 -0.300781,-2.941406 -0.09412,-0.282369 -0.210053,-0.51474 -0.414063,-0.71875 -0.102005,-0.102005 -0.22869,-0.193713 -0.36914,-0.253906 C 30.775565,12.025744 30.5,12 30.5,12 H 27.84375 C 27.695932,10.409113 27.456475,9.3709123 27.185547,8.6484375 26.959568,8.0458261 26.704009,7.6485714 26.398438,7.3769531 26.245652,7.241144 26.079368,7.1427725 25.919922,7.0820312 25.760476,7.02129 25.5,7 25.5,7 Z M 2.8652344,9 H 25.134766 c 0.0321,0.041409 0.07016,0.059496 0.179687,0.3515625 C 25.612495,10.14634 26,12.0625 26,16 26,19.9375 25.612495,21.853661 25.314453,22.648438 25.204928,22.940504 25.166865,22.958591 25.134766,23 H 2.8652344 C 2.8331344,22.95859 2.7950714,22.9405 2.6855469,22.648438 2.3875054,21.853661 2,19.9375 2,16 2,12.0625 2.3875054,10.14634 2.6855469,9.3515625 2.7950717,9.0594963 2.8331346,9.0414093 2.8652344,9 Z m 25.1015626,5 h 1.861328 C 29.895752,14.279087 30,14.748675 30,16 c 0,1.251325 -0.104248,1.720913 -0.171875,2 H 27.966797 C 27.988514,17.392671 28,16.728116 28,16 28,15.271884 27.98851,14.607329 27.9668,14 Z" /></g></svg>
