<?xml version="1.0" encoding="UTF-8" standalone="no"?>
<svg
   width="32"
   height="32"
   version="1.1"
   id="svg2"
   sodipodi:docname="wifi=on.svg"
   inkscape:version="1.4.2 (ebf0e940d0, 2025-05-08)"
   xmlns:inkscape="http://www.inkscape.org/namespaces/inkscape"
   xmlns:sodipodi="http://sodipodi.sourceforge.net/DTD/sodipodi-0.dtd"
   xmlns="http://www.w3.org/2000/svg"
   xmlns:svg="http://www.w3.org/2000/svg">
  <defs
     id="defs2" />
  <sodipodi:namedview
     id="namedview2"
     pagecolor="#333333"
     bordercolor="#000000"
     borderopacity="0.25"
     inkscape:showpageshadow="2"
     inkscape:pageopacity="0.0"
     inkscape:pagecheckerboard="0"
     inkscape:deskcolor="#d1d1d1"
     showgrid="true"
     inkscape:zoom="12.421875"
     inkscape:cx="1.4893082"
     inkscape:cy="13.56478"
     inkscape:window-width="1854"
     inkscape:window-height="1008"
     inkscape:window-x="66"
     inkscape:window-y="35"
     inkscape:window-maximized="1"
     inkscape:current-layer="svg2">
    <inkscape:grid
       id="grid2"
       units="px"
       originx="0"
       originy="0"
       spacingx="1"
       spacingy="1"
       empcolor="#0099e5"
       empopacity="0.30196078"
       color="#0099e5"
       opacity="0.14901961"
       empspacing="4"
       enabled="true"
       visible="true" />
  </sodipodi:namedview>
  <g
     transform="matrix(2.0000318,0,0,2.0000318,-586.01092,701.01107)"
     fill="#ffffff"
     id="g2">
    <path
       d="m 301,-348 c -2.766,0 -5.308,1.044 -7.312,2.773 -0.1046,0.0902 -0.1131,0.2487 -0.0212,0.3518 l 0.9491,1.064 c 0.0919,0.103 0.2504,0.1125 0.356,0.0236 1.756,-1.479 3.629,-2.212 6.028,-2.212 2.404,0 4.197,0.6916 6.031,2.243 0.1054,0.0892 0.2629,0.0788 0.3536,-0.0253 l 0.9515,-1.092 c 0.0907,-0.1041 0.0812,-0.2635 -0.0234,-0.3537 -2.003,-1.728 -4.545,-2.772 -7.312,-2.772 z"
       color="#000000"
       opacity="0.35"
       overflow="visible"
       id="path1" />
    <path
       d="m 300.8,-344 c -1.661,0.061 -3.169,0.7256 -4.43,1.714 -0.1087,0.0851 -0.1174,0.2376 -0.022,0.3375 l 0.9985,1.045 c 0.0954,0.0998 0.2636,0.1152 0.3788,0.0392 0.8345,-0.5511 1.987,-1.057 3.013,-1.13 0.1376,-0.01 0.3617,-0.01 0.4994,-4.1e-4 1.06,0.0723 2.284,0.5842 3.14,1.16 0.1144,0.077 0.2807,0.0621 0.375,-0.0387 l 1.033,-1.105 c 0.0943,-0.1008 0.0847,-0.2541 -0.0243,-0.339 -1.264,-0.984 -2.798,-1.624 -4.462,-1.682 -0.138,-0.005 -0.3619,-0.005 -0.4999,1.9e-4 z m 3.4e-4,4.008 c -0.6718,0.0651 -1.314,0.3788 -1.694,0.6919 -0.1062,0.0875 -0.1051,0.2527 -0.011,0.3537 l 1.784,1.915 a 0.2329,0.2329 0 0 0 0.3408,0 l 1.784,-1.915 c 0.0941,-0.101 0.0972,-0.2685 -0.008,-0.3577 -0.3793,-0.3217 -1.023,-0.6259 -1.698,-0.6885 -0.1371,-0.0127 -0.3613,-0.0127 -0.4987,5.8e-4 z"
       overflow="visible"
       id="path2" />
  </g>
</svg>
