<svg xmlns="http://www.w3.org/2000/svg" xmlns:svg="http://www.w3.org/2000/svg" id="svg218" width="480" height="320" version="1.1" viewBox="0 0 480 320" xml:space="preserve"><defs id="defs213"><linearGradient id="a" x1="147.4" x2="334.6" y1="291.2" y2="-32.92" gradientUnits="userSpaceOnUse"><stop style="stop-color:#5846b5;stop-opacity:1" id="stop208" offset="0" stop-color="#0055d4"/><stop style="stop-color:#a297d7;stop-opacity:1" id="stop210" offset="1" stop-color="#37abc8"/></linearGradient></defs><rect id="b" width="480" height="320" fill="url(#a)" ry="24"/><style id="style1022" type="text/css"/><g style="fill:#fff" id="g1066" transform="matrix(0.11384215,0,0,0.11384215,19.162203,114.97069)"><polyline style="fill:#fff" id="polyline1024" points="1461.3 424.5 1291.2 720.2 1504 720.2 1504 653 1409.1 653 1496.9 506.2 1615.7 720.2 1703.9 720.2 1532.3 424.5 1461.3 424.5"/><polyline style="fill:#fff" id="polyline1026" points="1896.8 720.2 1987.8 562.1 1987.8 720.2 2060.9 720.2 2061.1 424.5 1988.1 424.5 1867.4 633.9 1746.6 424.5 1673.8 424.5 1673.9 720.2 1746.9 720.2 1746.9 562.1 1838.1 720.2 1896.8 720.2"/><path style="fill:#fff" id="path1028" d="M 1300.7,542.2 H 1116 v 62.4 h 107.1 V 653 H 1032 V 488.6 h 265.5 v -64.1 h -268 c -58,0 -76.8,17.8 -76.8,73.5 v 148.6 c 0,55.9 18.7,73.7 76.8,73.7 h 194.6 c 58,0 76.7,-17.8 76.7,-73.7 V 542.2"/><path style="fill:#fff" id="path1030" d="M 2708.8,424.5 H 2535 c -58.3,0 -76.8,17.8 -76.8,73.5 v 148.5 c 0,55.9 18.5,73.6 76.8,73.6 h 173.8 c 58,0 76.9,-17.7 76.9,-73.6 v -53.9 h -79.5 V 653 H 2537.5 V 488.6 h 168.7 v 53.5 h 79.5 V 498 c 0,-55.7 -18.9,-73.5 -76.9,-73.5"/><path style="fill:#fff" id="path1032" d="M 3069.7,653 H 2896.8 V 424.5 h -79.4 v 222 c 0,55.9 18.7,73.7 76.8,73.7 h 178 c 58.2,0 76.9,-17.8 76.9,-73.7 v -222 h -79.4 V 653"/><path style="fill:#fff" id="path1034" d="m 3430.8,637 c 0,14.3 -3.2,18.1 -24.7,18.1 h -142.6 v -57.2 h 142.6 c 21.5,0 24.7,4 24.7,18 V 637 M 3263.5,483.9 h 142.3 c 22,0 23,4.7 23,13.3 v 26.9 c 0,8.5 -1,13.4 -23,13.4 h -142.3 z m 209.2,84.3 c 19.1,-9.1 29.6,-25.9 29.6,-47.8 v -34.6 c 0,-41.9 -22.4,-61.3 -70.4,-61.3 H 3184 v 295.7 h 230.6 c 60.1,0 90.3,-20.8 90.3,-62.5 v -35.9 c 0.1,-25.2 -11.3,-43.8 -32.2,-53.6 z"/><polyline style="fill:#fff" id="polyline1036" points="3614.3 597.8 3744.3 597.8 3744.3 535.7 3614.3 535.7 3614.3 486.7 3837.3 486.7 3837.3 424.5 3534.8 424.5 3534.8 720.2 3840 720.2 3840 653 3614.3 653 3614.3 597.8"/><polyline style="fill:#fff" id="polyline1038" points="2175.6 597.8 2305.5 597.8 2305.5 535.7 2175.6 535.7 2175.6 486.7 2398.5 486.7 2398.5 424.5 2096.2 424.5 2096.2 720.2 2401.2 720.2 2401.2 653 2175.6 653 2175.6 597.8"/><polyline style="fill:#fff" id="polyline1040" points="3016.9 342.8 3016.9 115.6 2973.6 115.6 2973.6 260.4 2900.2 115.6 2841.9 115.6 2841.9 342.8 2885 342.8 2885 165.7 2974 342.8 3016.9 342.8"/><polyline style="fill:#fff" id="polyline1042" points="1764.6 165.7 1853.7 342.8 1896.5 342.8 1896.5 115.6 1853.3 115.6 1853.3 260.4 1779.7 115.6 1721.4 115.6 1721.4 342.8 1764.6 342.8 1764.6 165.7"/><polyline style="fill:#fff" id="polyline1044" points="1056.4 165.7 1145.4 342.8 1188.2 342.8 1188.2 115.6 1144.9 115.6 1144.9 260.4 1071.5 115.6 1013.2 115.6 1013.2 342.8 1056.4 342.8 1056.4 165.7"/><rect style="fill:#fff" id="rect1046" width="48.7" height="227.2" x="1430.4" y="115.6"/><polyline style="fill:#fff" id="polyline1048" points="2163.5 342.8 2209.8 342.8 2209.8 151.8 2282.7 151.8 2282.7 115.7 2090.4 115.7 2090.4 151.8 2163.5 151.8 2163.5 342.8"/><path style="fill:#fff" id="path1050" d="m 3271.8,150.5 h 61 c 14.9,0 30.3,11.4 30.3,25.2 V 283 c 0,14.7 -15.8,24.9 -30.3,24.9 h -61 V 150.5 m 62.3,192.3 c 39.8,0 71.9,-26.3 71.9,-58.6 V 174.3 c 0,-32.5 -32.1,-58.8 -71.9,-58.8 H 3229 v 227.2 h 105.1 z"/><path style="fill:#fff" id="path1052" d="m 3742.1,284.6 c 0,13.7 -15.5,25 -30.3,25 h -36 c -14.9,0 -30.3,-11.3 -30.3,-25 V 173.9 c 0,-14.1 15.4,-25.1 30.3,-25.1 h 36 c 14.8,0 30.3,11 30.3,25.1 v 110.7 m 42.9,-112 c 0,-32.4 -32.4,-58.6 -71.8,-58.6 h -38.8 c -39.6,0 -71.8,26.3 -71.8,58.6 v 113.2 c 0,32.5 32.2,58.7 71.8,58.7 h 38.8 c 39.5,0 71.8,-26.2 71.8,-58.7 z"/><path style="fill:#fff" id="path1054" d="m 2461.4,284.4 c 0,31.6 30.5,57.1 68.6,58.4 h 100.1 v -36 h -95.8 c -15,0 -30.3,-9.8 -30.3,-23.6 v -41.1 h 126.1 V 205.7 H 2504 v -30.4 c 0,-13.7 15.3,-23.7 30.3,-23.7 h 95.8 v -35.9 h -98.5 c -38.8,0.8 -70.1,26.6 -70.1,58.5 l -0.1,110.2"/><polyline style="fill:#fff" id="polyline1056" points="192.4 546 362.2 644 362.3 447.9 192.4 349.9 192.4 546"/><polyline style="fill:#fff" id="polyline1058" points="119.5 588.1 362.3 728.3 362.3 866.1 0 657 0 238.8 119.5 307.8 119.5 588.1"/><polyline style="fill:#fff" id="polyline1060" points="379.6 221.9 209.9 319.9 379.6 417.9 549.4 319.9 379.6 221.9"/><polyline style="fill:#fff" id="polyline1062" points="379.6 137.6 583.9 255.8 703.4 186.9 379.6 0 17.8 208.9 137 277.8 379.6 137.6"/><polyline style="fill:#fff" id="polyline1064" points="639.7 588.1 639.7 445.6 566.7 487.7 566.7 546 396.9 644.1 396.9 644.3 396.9 447.9 759.1 238.8 759.1 657 396.9 866.1 396.9 728.4 639.7 588.1"/></g></svg>