<svg xmlns="http://www.w3.org/2000/svg" xmlns:svg="http://www.w3.org/2000/svg" xmlns:xlink="http://www.w3.org/1999/xlink" id="svg1543" width="480" height="320" version="1.1" viewBox="0 0 480 320" xml:space="preserve"><defs id="defs1540"><linearGradient id="linearGradient1932"><stop style="stop-color:#800020;stop-opacity:1" id="stop1928" offset="0"/><stop style="stop-color:#ff3400;stop-opacity:1" id="stop1930" offset="1"/></linearGradient><linearGradient id="linearGradient1934" x1="274.839" x2="157.447" y1="349.602" y2="-88.511" gradientUnits="userSpaceOnUse" spreadMethod="pad" xlink:href="#linearGradient1932"/></defs><rect id="baseRect" width="480" height="320" x="0" y="0" ry="24" style="fill:url(#linearGradient1934)"/><g style="fill:#fff" id="g1" transform="matrix(0.21,0,0,0.21,139.2,260.8)"><path id="path1" d="M 158,-242 Q 121,-292 100.5,-352.5 80,-413 80,-480 q 0,-67 20,-127 20,-60 57,-110 l 58,57 q -26,38 -40.5,83.5 -14.5,45.5 -14.5,96.5 0,51 14.5,97 14.5,46 40.5,84 z m 322,162 q -67,0 -127,-20 -60,-20 -110,-57 l 57,-58 q 38,26 83.5,40.5 45.5,14.5 96.5,14.5 51,0 96.5,-14.5 Q 622,-189 660,-215 l 57,58 q -50,37 -110,57 -60,20 -127,20 z m 322,-162 -57,-57 q 26,-38 40.5,-84 14.5,-46 14.5,-97 0,-51 -14.5,-96.5 Q 771,-622 745,-660 l 58,-57 q 37,50 57,110 20,60 20,127 0,67 -20.5,127.5 Q 839,-292 802,-242 Z m -503,-503 -57,-57 q 50,-37 110.5,-57.5 Q 413,-880 480,-880 q 68,0 128,20.5 60,20.5 110,57.5 l -57,57 q -38,-26 -84,-40.5 -46,-14.5 -97,-14.5 -51,0 -97,14.5 -46,14.5 -84,40.5 z m 181,465 q -83,0 -141.5,-58.5 Q 280,-397 280,-480 280,-563 338.5,-621.5 397,-680 480,-680 q 83,0 141.5,58.5 58.5,58.5 58.5,141.5 0,83 -58.5,141.5 Q 563,-280 480,-280 Z" style="fill:#fff"/></g></svg>