<svg xmlns="http://www.w3.org/2000/svg" xmlns:svg="http://www.w3.org/2000/svg" id="svg218" width="480" height="320" version="1.1" viewBox="0 0 480 320" xml:space="preserve"><defs id="defs213"><linearGradient id="a" x1="147.4" x2="334.6" y1="291.2" y2="-32.92" gradientUnits="userSpaceOnUse"><stop id="stop208" offset="0" stop-color="#0055d4"/><stop id="stop210" offset="1" stop-color="#37abc8"/></linearGradient></defs><rect id="b" width="480" height="320" fill="url(#a)" ry="24"/><path id="path771" d="m 193.41878,89.298105 15.95374,19.635375 h -31.90748 l -7.36327,29.45306 h -19.63538 l 7.36326,-29.45306 h -19.63537 l -14.72652,58.90611 h 39.27073 l -4.90884,19.63539 h 34.36191 l -25.77142,29.45305 h 28.83945 l 23.93061,-29.45305 h 53.99727 l 23.93062,29.45305 h 28.83944 l -25.77142,-29.45305 h 34.36191 l -4.90884,-19.63539 h 39.27074 l -14.72653,-58.90611 h -19.63537 l 7.36326,29.45306 H 322.2759 l -7.36326,-29.45306 H 283.00516 L 298.9589,89.298105 H 278.09632 L 260.91537,108.93348 H 231.4623 L 214.28136,89.298105 Z m 2.45441,39.270745 h 19.63537 v 19.63537 h -19.63537 z m 81.04706,0 h 19.63536 v 19.63537 h -19.63536 z" style="fill:#fff;stroke-width:10.2268"/></svg>