<svg xmlns="http://www.w3.org/2000/svg" xmlns:svg="http://www.w3.org/2000/svg" xmlns:xlink="http://www.w3.org/1999/xlink" id="svg1543" width="480" height="320" version="1.1" viewBox="0 0 480 320" xml:space="preserve"><defs id="defs1540"><linearGradient id="linearGradient1932"><stop style="stop-color:#290080;stop-opacity:1" id="stop1928" offset="0"/><stop style="stop-color:#00b3ff;stop-opacity:1" id="stop1930" offset="1"/></linearGradient><linearGradient id="linearGradient1934" x1="306.328" x2="-74.894" y1="355.56" y2="-129.362" gradientUnits="userSpaceOnUse" spreadMethod="pad" xlink:href="#linearGradient1932"/></defs><rect id="baseRect" width="480" height="320" x="0" y="0" ry="24" style="fill:url(#linearGradient1934)"/><g style="fill:#fff" id="g1" transform="matrix(0.21,0,0,0.21,139.2,260.8)"><path id="path1" d="m 234,-276 q 51,-39 114,-61.5 63,-22.5 132,-22.5 69,0 132,22.5 63,22.5 114,61.5 35,-41 54.5,-93 19.5,-52 19.5,-111 0,-133 -93.5,-226.5 Q 613,-800 480,-800 347,-800 253.5,-706.5 160,-613 160,-480 q 0,59 19.5,111 19.5,52 54.5,93 z m 246,-164 q -59,0 -99.5,-40.5 Q 340,-521 340,-580 q 0,-59 40.5,-99.5 40.5,-40.5 99.5,-40.5 59,0 99.5,40.5 40.5,40.5 40.5,99.5 0,59 -40.5,99.5 Q 539,-440 480,-440 Z m 0,360 Q 397,-80 324,-111.5 251,-143 197,-197 143,-251 111.5,-324 80,-397 80,-480 q 0,-83 31.5,-156 31.5,-73 85.5,-127 54,-54 127,-85.5 73,-31.5 156,-31.5 83,0 156,31.5 73,31.5 127,85.5 54,54 85.5,127 31.5,73 31.5,156 0,83 -31.5,156 -31.5,73 -85.5,127 -54,54 -127,85.5 Q 563,-80 480,-80 Z m 0,-80 q 53,0 100,-15.5 47,-15.5 86,-44.5 -39,-29 -86,-44.5 -47,-15.5 -100,-15.5 -53,0 -100,15.5 -47,15.5 -86,44.5 39,29 86,44.5 47,15.5 100,15.5 z m 0,-360 q 26,0 43,-17 17,-17 17,-43 0,-26 -17,-43 -17,-17 -43,-17 -26,0 -43,17 -17,17 -17,43 0,26 17,43 17,17 43,17 z m 0,-60 z m 0,360 z" style="fill:#fff"/></g></svg>