<svg xmlns="http://www.w3.org/2000/svg" width="480" height="320" version="1.1" viewBox="0 0 480 320" xml:space="preserve"><defs><linearGradient id="a" x1="240" x2="240" y1="320" y2="-96.99" gradientUnits="userSpaceOnUse"><stop offset="0" stop-color="#4f7623"/><stop offset="1" stop-color="#9beb4a"/></linearGradient></defs><rect id="b" width="480" height="320" fill="url(#a)" ry="24"/><path fill="#fff" d="m140 60v200h200v-200h-77.12v1.078c0 12.67-10.27 22.93-22.93 22.93-12.67 0-22.93-10.27-22.93-22.93v-1.078zm161.7 93.66a16.73 16.73 0 0 1 16.73 16.73 16.73 16.73 0 0 1-16.73 16.72 16.73 16.73 0 0 1-16.73-16.72 16.73 16.73 0 0 1 16.73-16.73zm-116.4 2.651h18.58v22.61h22.31v18.58h-22.31v23.85h-18.58v-23.85h-24.15v-18.58h24.15zm85.86 33.84a16.73 16.73 0 0 1 16.73 16.72 16.73 16.73 0 0 1-16.73 16.73 16.73 16.73 0 0 1-16.73-16.73 16.73 16.73 0 0 1 16.73-16.72z"/></svg>